{
  "accessors": [
    {
      "bufferView": 2,
      "componentType": 5126,
      "count": 1001,
      "max": [
        0.5392688512802124,
        1.0226364135742188,
        0.519561767578125
      ],
      "min": [
        -0.5392688512802124,
        -1.0226268768310547,
        -0.519561767578125
      ],
      "type": "VEC3"
    },
    {
      "bufferView": 2,
      "byteOffset": 12012,
      "componentType": 5126,
      "count": 1001,
      "max": [
        0.9999465346336365,
        1.0,
        1.0
      ],
      "min": [
        -0.9999465346336365,
        -1.0,
        -1.0
      ],
      "type": "VEC3"
    },
    {
      "bufferView": 3,
      "componentType": 5126,
      "count": 1001,
      "max": [
        0.9696555733680725,
        1.0,
        0.22565262019634247,
        1.0
      ],
      "min": [
        -0.44771644473075867,
        -0.9999939799308777,
        -0.48580512404441833,
        1.0
      ],
      "type": "VEC4"
    },
    {
      "bufferView": 1,
      "componentType": 5126,
      "count": 1001,
      "max": [
        1.0,
        0.806484580039978
      ],
      "min": [
        0.0,
        0.0
      ],
      "type": "VEC2"
    },
    {
      "bufferView": 0,
      "componentType": 5125,
      "count": 5076,
      "type": "SCALAR"
    },
    {
      "bufferView": 2,
      "byteOffset": 24024,
      "componentType": 5126,
      "count": 380,
      "max": [
        1.4940179586410522,
        1.7384147644042969,
        61.427345275878906
      ],
      "min": [
        -50.62029266357422,
        -4.173791408538818,
        -0.5558505058288574
      ],
      "type": "VEC3"
    },
    {
      "bufferView": 2,
      "byteOffset": 28584,
      "componentType": 5126,
      "count": 380,
      "max": [
        0.9995408654212952,
        1.0,
        0.9983881711959839
      ],
      "min": [
        -0.9995399713516235,
        -1.0,
        -0.9979597926139832
      ],
      "type": "VEC3"
    },
    {
      "bufferView": 3,
      "byteOffset": 16016,
      "componentType": 5126,
      "count": 380,
      "max": [
        0.7355934381484985,
        0.9999997615814209,
        0.996697723865509,
        1.0
      ],
      "min": [
        -1.0,
        -1.0,
        -0.8846963047981262,
        1.0
      ],
      "type": "VEC4"
    },
    {
      "bufferView": 1,
      "byteOffset": 8008,
      "componentType": 5126,
      "count": 380,
      "max": [
        0.9732136726379395,
        0.9913896918296814
      ],
      "min": [
        0.018646061420440674,
        0.055311910808086395
      ],
      "type": "VEC2"
    },
    {
      "bufferView": 0,
      "byteOffset": 20304,
      "componentType": 5125,
      "count": 600,
      "type": "SCALAR"
    },
    {
      "bufferView": 2,
      "byteOffset": 33144,
      "componentType": 5126,
      "count": 1001,
      "max": [
        0.5392688512802124,
        1.0226364135742188,
        0.519561767578125
      ],
      "min": [
        -0.5392688512802124,
        -1.0226268768310547,
        -0.519561767578125
      ],
      "type": "VEC3"
    },
    {
      "bufferView": 2,
      "byteOffset": 45156,
      "componentType": 5126,
      "count": 1001,
      "max": [
        0.9999465346336365,
        1.0,
        1.0
      ],
      "min": [
        -0.9999465346336365,
        -1.0,
        -1.0
      ],
      "type": "VEC3"
    },
    {
      "bufferView": 3,
      "byteOffset": 22096,
      "componentType": 5126,
      "count": 1001,
      "max": [
        0.9696556329727173,
        1.0,
        0.2256530076265335,
        1.0
      ],
      "min": [
        -0.4477164149284363,
        -0.9999939203262329,
        -0.4858103394508362,
        1.0
      ],
      "type": "VEC4"
    },
    {
      "bufferView": 1,
      "byteOffset": 11048,
      "componentType": 5126,
      "count": 1001,
      "max": [
        1.0,
        0.6880260109901428
      ],
      "min": [
        0.0,
        0.0
      ],
      "type": "VEC2"
    },
    {
      "bufferView": 0,
      "byteOffset": 22704,
      "componentType": 5125,
      "count": 5076,
      "type": "SCALAR"
    },
    {
      "bufferView": 2,
      "byteOffset": 57168,
      "componentType": 5126,
      "count": 5959,
      "max": [
        19.111101150512695,
        105.99888610839844,
        615.5426635742188
      ],
      "min": [
        -436.28924560546875,
        41.86003494262695,
        80.34436798095703
      ],
      "type": "VEC3"
    },
    {
      "bufferView": 2,
      "byteOffset": 128676,
      "componentType": 5126,
      "count": 5959,
      "max": [
        1.0,
        1.0,
        0.9510578513145447
      ],
      "min": [
        -1.0,
        -1.0,
        -0.9510579705238342
      ],
      "type": "VEC3"
    },
    {
      "bufferView": 3,
      "byteOffset": 38112,
      "componentType": 5126,
      "count": 5959,
      "max": [
        0.9921876788139343,
        0.5260940790176392,
        0.9999356269836426,
        1.0
      ],
      "min": [
        -0.9626491069793701,
        -0.5028632283210754,
        -0.9980464577674866,
        1.0
      ],
      "type": "VEC4"
    },
    {
      "bufferView": 1,
      "byteOffset": 19056,
      "componentType": 5126,
      "count": 5959,
      "max": [
        0.7039302587509155,
        0.9628502130508423
      ],
      "min": [
        0.3504026532173157,
        0.7214385271072388
      ],
      "type": "VEC2"
    },
    {
      "bufferView": 0,
      "byteOffset": 43008,
      "componentType": 5125,
      "count": 31860,
      "type": "SCALAR"
    }
  ],
  "asset": {
    "extras": {
      "author": "Kingy (https://sketchfab.com/kingy)",
      "license": "CC-BY-4.0 (http://creativecommons.org/licenses/by/4.0/)",
      "source": "https://sketchfab.com/3d-models/dogtags-us-vietnam-war-161efcfc36e84cb28af7d160f7906e88",
      "title": "Dogtags - US Vietnam War"
    },
    "generator": "Sketchfab-12.68.0",
    "version": "2.0"
  },
  "bufferViews": [
    {
      "buffer": 0,
      "byteLength": 170448,
      "name": "floatBufferViews",
      "target": 34963
    },
    {
      "buffer": 0,
      "byteLength": 66728,
      "byteOffset": 170448,
      "byteStride": 8,
      "name": "floatBufferViews",
      "target": 34962
    },
    {
      "buffer": 0,
      "byteLength": 200184,
      "byteOffset": 237176,
      "byteStride": 12,
      "name": "floatBufferViews",
      "target": 34962
    },
    {
      "buffer": 0,
      "byteLength": 133456,
      "byteOffset": 437360,
      "byteStride": 16,
      "name": "floatBufferViews",
      "target": 34962
    }
  ],
  "buffers": [
    {
      "byteLength": 570816,
      "uri": "scene.bin"
    }
  ],
  "images": [
    {
      "uri": "textures/lambert1_baseColor.png"
    },
    {
      "uri": "textures/lambert1_metallicRoughness.png"
    },
    {
      "uri": "textures/lambert1_normal.png"
    }
  ],
  "materials": [
    {
      "doubleSided": true,
      "name": "lambert1",
      "normalTexture": {
        "index": 2
      },
      "occlusionTexture": {
        "index": 1
      },
      "pbrMetallicRoughness": {
        "baseColorTexture": {
          "index": 0
        },
        "metallicRoughnessTexture": {
          "index": 1
        }
      }
    }
  ],
  "meshes": [
    {
      "name": "tag1_low_lambert1_0",
      "primitives": [
        {
          "attributes": {
            "NORMAL": 1,
            "POSITION": 0,
            "TANGENT": 2,
            "TEXCOORD_0": 3
          },
          "indices": 4,
          "material": 0,
          "mode": 4
        }
      ]
    },
    {
      "name": "chaom_low_lambert1_0",
      "primitives": [
        {
          "attributes": {
            "NORMAL": 6,
            "POSITION": 5,
            "TANGENT": 7,
            "TEXCOORD_0": 8
          },
          "indices": 9,
          "material": 0,
          "mode": 4
        }
      ]
    },
    {
      "name": "tag2_low_lambert1_0",
      "primitives": [
        {
          "attributes": {
            "NORMAL": 11,
            "POSITION": 10,
            "TANGENT": 12,
            "TEXCOORD_0": 13
          },
          "indices": 14,
          "material": 0,
          "mode": 4
        }
      ]
    },
    {
      "name": "balls_low_lambert1_0",
      "primitives": [
        {
          "attributes": {
            "NORMAL": 16,
            "POSITION": 15,
            "TANGENT": 17,
            "TEXCOORD_0": 18
          },
          "indices": 19,
          "material": 0,
          "mode": 4
        }
      ]
    }
  ],
  "nodes": [
    {
      "children": [
        1
      ],
      "matrix": [
        1.0,
        0.0,
        0.0,
        0.0,
        0.0,
        -5.053215392444312e-16,
        1.0,
        0.0,
        0.0,
        -1.0,
        -5.053215392444312e-16,
        0.0,
        -3.7474327087402344,
        -147.85885620117176,
        -495.36755371093756,
        1.0
      ],
      "name": "Sketchfab_model"
    },
    {
      "children": [
        2
      ],
      "matrix": [
        1.0,
        0.0,
        0.0,
        0.0,
        0.0,
        -1.0,
        0.0,
        0.0,
        0.0,
        0.0,
        -1.0,
        0.0,
        0.0,
        0.0,
        0.0,
        1.0
      ],
      "name": "c2905db081e3458488eacf009a56ea75.fbx"
    },
    {
      "children": [
        3,
        5,
        7,
        9
      ],
      "name": "RootNode"
    },
    {
      "children": [
        4
      ],
      "matrix": [
        116.88536428070765,
        -60.320097456763826,
        1.0952250357445983e-14,
        0.0,
        0.0,
        6.718879742835884e-16,
        6.051828861236572,
        0.0,
        -106.56926556038663,
        -206.50476294541363,
        2.5799544453391186e-14,
        0.0,
        39.33168029785156,
        -9.262312889099121,
        81.71372985839844,
        1.0
      ],
      "name": "tag1_low"
    },
    {
      "mesh": 0,
      "name": "tag1_low_lambert1_0"
    },
    {
      "children": [
        6
      ],
      "matrix": [
        8.466878890991211,
        0.0,
        0.0,
        0.0,
        0.0,
        1.8800247782982307e-15,
        8.466878890991211,
        0.0,
        0.0,
        -8.466878890991211,
        1.8800247782982307e-15,
        0.0,
        0.0,
        -90.85816955566406,
        84.78893280029297,
        1.0
      ],
      "name": "chaom_low"
    },
    {
      "mesh": 1,
      "name": "chaom_low_lambert1_0"
    },
    {
      "children": [
        8
      ],
      "matrix": [
        -16.40663331663813,
        -130.50488467272248,
        2.920600095318929e-14,
        0.0,
        0.0,
        6.718879742835884e-16,
        6.051828861236572,
        0.0,
        -230.56676461081346,
        28.986074900259254,
        0.0,
        0.0,
        96.91703033447266,
        -107.3863525390625,
        69.77722930908203,
        1.0
      ],
      "name": "tag2_low"
    },
    {
      "mesh": 2,
      "name": "tag2_low_lambert1_0"
    },
    {
      "children": [
        10
      ],
      "matrix": [
        1.0,
        0.0,
        0.0,
        0.0,
        0.0,
        2.220446049250313e-16,
        1.0,
        0.0,
        0.0,
        -1.0,
        2.220446049250313e-16,
        0.0,
        0.0,
        0.0,
        0.0,
        1.0
      ],
      "name": "balls_low"
    },
    {
      "mesh": 3,
      "name": "balls_low_lambert1_0"
    }
  ],
  "samplers": [
    {
      "magFilter": 9729,
      "minFilter": 9987,
      "wrapS": 10497,
      "wrapT": 10497
    }
  ],
  "scene": 0,
  "scenes": [
    {
      "name": "Sketchfab_Scene",
      "nodes": [
        0
      ]
    }
  ],
  "textures": [
    {
      "sampler": 0,
      "source": 0
    },
    {
      "sampler": 0,
      "source": 1
    },
    {
      "sampler": 0,
      "source": 2
    }
  ]
}
